<svg width="1280" height="720" xmlns="http://www.w3.org/2000/svg" xmlns:xlink="http://www.w3.org/1999/xlink" overflow="hidden"><defs><clipPath id="clip0"><rect x="0" y="0" width="1280" height="720"/></clipPath></defs><g clip-path="url(#clip0)"><rect x="0" y="0" width="1280" height="720" fill="#FFFFFF"/><rect x="-7" y="-9" width="1299" height="635" stroke="#000000" stroke-width="8" stroke-miterlimit="8" fill="none"/><path d="M376 315.5C376 169.421 494.197 51 640 51 785.803 51 904 169.421 904 315.5 904 461.579 785.803 580 640 580 494.197 580 376 461.579 376 315.5Z" fill-rule="evenodd"/><path d="M527.922 236.395C527.922 221.178 540.235 208.843 555.422 208.843 570.61 208.843 582.922 221.178 582.922 236.395 582.922 251.611 570.61 263.947 555.422 263.947 540.235 263.947 527.922 251.611 527.922 236.395M697.078 236.395C697.078 221.178 709.39 208.843 724.578 208.843 739.765 208.843 752.078 221.178 752.078 236.395 752.078 251.611 739.765 263.947 724.578 263.947 709.39 263.947 697.078 251.611 697.078 236.395" stroke="#FFFFFF" stroke-width="2" stroke-miterlimit="8" fill-rule="evenodd"/><path d="M496.91 430.85C592.303 496.488 687.585 496.488 782.756 430.85" stroke="#FFFFFF" stroke-width="2" stroke-miterlimit="8" fill="none" fill-rule="evenodd"/><path d="M376 315.5C376 169.421 494.197 51 640 51 785.803 51 904 169.421 904 315.5 904 461.579 785.803 580 640 580 494.197 580 376 461.579 376 315.5Z" stroke="#FFFFFF" stroke-width="2" stroke-miterlimit="8" fill="none" fill-rule="evenodd"/><path d="M1028 439 1168 439 1168 580 1028 580ZM1045.5 489.813 1045.5 529.187 1078.31 529.187 1111.12 562 1111.12 457 1078.31 489.813Z" fill="#A5A5A5" fill-rule="evenodd"/><path d="M1045.5 489.813 1045.5 529.187 1078.31 529.187 1111.12 562 1111.12 457 1078.31 489.813Z" fill="#636363" fill-rule="evenodd"/><path d="M1045.5 489.813 1078.31 489.813 1111.12 457 1111.12 562 1078.31 529.187 1045.5 529.187ZM1124.25 489.813 1150.5 470.125M1124.25 509.5 1150.5 509.5M1124.25 529.187 1150.5 548.875" stroke="#FFFFFF" stroke-width="2" stroke-miterlimit="8" fill="none" fill-rule="evenodd"/><rect x="1028" y="439" width="140" height="141" stroke="#FFFFFF" stroke-width="2" stroke-miterlimit="8" fill="none"/><path d="M0 0 140 0 140 141 0 141ZM17.5 50.8126 17.5 90.1874 50.3126 90.1874 83.125 123 83.125 18 50.3126 50.8126Z" fill="#A5A5A5" fill-rule="evenodd" transform="matrix(-1 0 0 1 254 439)"/><path d="M17.5 50.8126 17.5 90.1874 50.3126 90.1874 83.125 123 83.125 18 50.3126 50.8126Z" fill="#636363" fill-rule="evenodd" transform="matrix(-1 0 0 1 254 439)"/><path d="M17.5 50.8126 50.3126 50.8126 83.125 18 83.125 123 50.3126 90.1874 17.5 90.1874ZM96.25 50.8126 122.5 31.125M96.25 70.5 122.5 70.5M96.25 90.1874 122.5 109.875" stroke="#FFFFFF" stroke-width="2" stroke-miterlimit="8" fill="none" fill-rule="evenodd" transform="matrix(-1 0 0 1 254 439)"/><rect x="0" y="0" width="140" height="141" stroke="#FFFFFF" stroke-width="2" stroke-miterlimit="8" fill="none" transform="matrix(-1 0 0 1 254 439)"/></g></svg>