<svg width="1280" height="720" xmlns="http://www.w3.org/2000/svg" xmlns:xlink="http://www.w3.org/1999/xlink" overflow="hidden"><defs><clipPath id="clip0"><rect x="0" y="0" width="1280" height="720"/></clipPath></defs><g clip-path="url(#clip0)"><rect x="0" y="0" width="1280" height="720" fill="#FFFFFF"/><rect x="34.5001" y="24.5001" width="107" height="103" stroke="#172C51" stroke-width="1.33333" stroke-miterlimit="8" fill="#AFABAB"/><rect x="157.5" y="24.5001" width="107" height="103" stroke="#172C51" stroke-width="1.33333" stroke-miterlimit="8" fill="#AFABAB"/><rect x="280.5" y="24.5001" width="107" height="103" stroke="#172C51" stroke-width="1.33333" stroke-miterlimit="8" fill="#AFABAB"/><rect x="402.5" y="24.5001" width="107" height="103" stroke="#172C51" stroke-width="1.33333" stroke-miterlimit="8" fill="#AFABAB"/><rect x="525.5" y="24.5001" width="107" height="103" stroke="#172C51" stroke-width="1.33333" stroke-miterlimit="8" fill="#AFABAB"/><rect x="648.5" y="24.5001" width="108" height="103" stroke="#172C51" stroke-width="1.33333" stroke-miterlimit="8" fill="#AFABAB"/><rect x="772.5" y="24.5001" width="107" height="103" stroke="#172C51" stroke-width="1.33333" stroke-miterlimit="8" fill="#AFABAB"/><rect x="895.5" y="24.5001" width="107" height="103" stroke="#172C51" stroke-width="1.33333" stroke-miterlimit="8" fill="#AFABAB"/><rect x="1018.5" y="24.5001" width="107" height="103" stroke="#172C51" stroke-width="1.33333" stroke-miterlimit="8" fill="#AFABAB"/><rect x="1141.5" y="24.5001" width="107" height="103" stroke="#172C51" stroke-width="1.33333" stroke-miterlimit="8" fill="#AFABAB"/><rect x="34.5001" y="146.5" width="107" height="103" stroke="#172C51" stroke-width="1.33333" stroke-miterlimit="8" fill="#F8CBAD"/><rect x="157.5" y="146.5" width="107" height="103" stroke="#172C51" stroke-width="1.33333" stroke-miterlimit="8" fill="#F8CBAD"/><rect x="280.5" y="146.5" width="107" height="103" stroke="#172C51" stroke-width="1.33333" stroke-miterlimit="8" fill="#F8CBAD"/><rect x="402.5" y="146.5" width="107" height="103" stroke="#172C51" stroke-width="1.33333" stroke-miterlimit="8" fill="#F8CBAD"/><rect x="525.5" y="146.5" width="107" height="103" stroke="#172C51" stroke-width="1.33333" stroke-miterlimit="8" fill="#F8CBAD"/><rect x="648.5" y="146.5" width="108" height="103" stroke="#172C51" stroke-width="1.33333" stroke-miterlimit="8" fill="#F8CBAD"/><rect x="772.5" y="146.5" width="107" height="103" stroke="#172C51" stroke-width="1.33333" stroke-miterlimit="8" fill="#F8CBAD"/><rect x="895.5" y="146.5" width="107" height="103" stroke="#172C51" stroke-width="1.33333" stroke-miterlimit="8" fill="#F8CBAD"/><rect x="1018.5" y="146.5" width="107" height="103" stroke="#172C51" stroke-width="1.33333" stroke-miterlimit="8" fill="#F8CBAD"/><rect x="1141.5" y="146.5" width="107" height="103" stroke="#172C51" stroke-width="1.33333" stroke-miterlimit="8" fill="#F8CBAD"/><rect x="34.5001" y="269.5" width="107" height="103" stroke="#172C51" stroke-width="1.33333" stroke-miterlimit="8" fill="#4472C4"/><rect x="157.5" y="269.5" width="107" height="103" stroke="#172C51" stroke-width="1.33333" stroke-miterlimit="8" fill="#4472C4"/><rect x="280.5" y="269.5" width="107" height="103" stroke="#172C51" stroke-width="1.33333" stroke-miterlimit="8" fill="#4472C4"/><rect x="402.5" y="269.5" width="107" height="103" stroke="#172C51" stroke-width="1.33333" stroke-miterlimit="8" fill="#4472C4"/><rect x="525.5" y="269.5" width="107" height="103" stroke="#172C51" stroke-width="1.33333" stroke-miterlimit="8" fill="#4472C4"/><rect x="648.5" y="269.5" width="108" height="103" stroke="#172C51" stroke-width="1.33333" stroke-miterlimit="8" fill="#4472C4"/><rect x="772.5" y="269.5" width="107" height="103" stroke="#172C51" stroke-width="1.33333" stroke-miterlimit="8" fill="#4472C4"/><rect x="895.5" y="269.5" width="107" height="103" stroke="#172C51" stroke-width="1.33333" stroke-miterlimit="8" fill="#4472C4"/><rect x="1018.5" y="269.5" width="107" height="103" stroke="#172C51" stroke-width="1.33333" stroke-miterlimit="8" fill="#4472C4"/><rect x="1141.5" y="269.5" width="107" height="103" stroke="#172C51" stroke-width="1.33333" stroke-miterlimit="8" fill="#4472C4"/><rect x="34.5001" y="391.5" width="107" height="103" stroke="#172C51" stroke-width="1.33333" stroke-miterlimit="8" fill="#548235"/><rect x="157.5" y="391.5" width="107" height="103" stroke="#172C51" stroke-width="1.33333" stroke-miterlimit="8" fill="#548235"/><rect x="280.5" y="391.5" width="107" height="103" stroke="#172C51" stroke-width="1.33333" stroke-miterlimit="8" fill="#548235"/><rect x="402.5" y="391.5" width="107" height="103" stroke="#172C51" stroke-width="1.33333" stroke-miterlimit="8" fill="#548235"/><rect x="525.5" y="391.5" width="107" height="103" stroke="#172C51" stroke-width="1.33333" stroke-miterlimit="8" fill="#548235"/><rect x="648.5" y="391.5" width="108" height="103" stroke="#172C51" stroke-width="1.33333" stroke-miterlimit="8" fill="#548235"/><rect x="772.5" y="391.5" width="107" height="103" stroke="#172C51" stroke-width="1.33333" stroke-miterlimit="8" fill="#548235"/><rect x="895.5" y="391.5" width="107" height="103" stroke="#172C51" stroke-width="1.33333" stroke-miterlimit="8" fill="#548235"/><rect x="1018.5" y="391.5" width="107" height="103" stroke="#172C51" stroke-width="1.33333" stroke-miterlimit="8" fill="#548235"/><rect x="1141.5" y="391.5" width="107" height="103" stroke="#172C51" stroke-width="1.33333" stroke-miterlimit="8" fill="#548235"/><rect x="35.5001" y="513.5" width="107" height="103" stroke="#172C51" stroke-width="1.33333" stroke-miterlimit="8" fill="#FFFF00"/><rect x="158.5" y="513.5" width="107" height="103" stroke="#172C51" stroke-width="1.33333" stroke-miterlimit="8" fill="#FFFF00"/><rect x="281.5" y="513.5" width="107" height="103" stroke="#172C51" stroke-width="1.33333" stroke-miterlimit="8" fill="#FFFF00"/><rect x="404.5" y="513.5" width="107" height="103" stroke="#172C51" stroke-width="1.33333" stroke-miterlimit="8" fill="#FFFF00"/><rect x="527.5" y="513.5" width="107" height="103" stroke="#172C51" stroke-width="1.33333" stroke-miterlimit="8" fill="#FFFF00"/><rect x="650.5" y="513.5" width="107" height="103" stroke="#172C51" stroke-width="1.33333" stroke-miterlimit="8" fill="#FFFF00"/><rect x="773.5" y="513.5" width="107" height="103" stroke="#172C51" stroke-width="1.33333" stroke-miterlimit="8" fill="#FFFF00"/><rect x="896.5" y="513.5" width="107" height="103" stroke="#172C51" stroke-width="1.33333" stroke-miterlimit="8" fill="#FFFF00"/><rect x="1019.5" y="513.5" width="107" height="103" stroke="#172C51" stroke-width="1.33333" stroke-miterlimit="8" fill="#FFFF00"/><rect x="1142.5" y="513.5" width="108" height="103" stroke="#172C51" stroke-width="1.33333" stroke-miterlimit="8" fill="#FFFF00"/><rect x="-7" y="-9" width="1299" height="635" stroke="#000000" stroke-width="8" stroke-miterlimit="8" fill="none"/></g></svg>