<svg width="1280" height="720" xmlns="http://www.w3.org/2000/svg" xmlns:xlink="http://www.w3.org/1999/xlink" overflow="hidden"><defs><clipPath id="clip0"><rect x="0" y="0" width="1280" height="720"/></clipPath></defs><g clip-path="url(#clip0)"><rect x="0" y="0" width="1280" height="720" fill="#FFFFFF"/><rect x="-7" y="-9" width="1299" height="635" stroke="#000000" stroke-width="8" stroke-miterlimit="8" fill="none"/><rect x="1148.5" y="15.5001" width="110" height="281" stroke="#172C51" stroke-width="1.33333" stroke-miterlimit="8" fill="#4472C4"/><rect x="1148.5" y="309.5" width="110" height="280" stroke="#172C51" stroke-width="1.33333" stroke-miterlimit="8" fill="#4472C4"/><rect x="1016.5" y="15.5001" width="110" height="281" stroke="#172C51" stroke-width="1.33333" stroke-miterlimit="8" fill="#4472C4"/><rect x="1016.5" y="309.5" width="110" height="280" stroke="#172C51" stroke-width="1.33333" stroke-miterlimit="8" fill="#4472C4"/><rect x="884.5" y="15.5001" width="110" height="281" stroke="#172C51" stroke-width="1.33333" stroke-miterlimit="8" fill="#4472C4"/><rect x="884.5" y="309.5" width="110" height="280" stroke="#172C51" stroke-width="1.33333" stroke-miterlimit="8" fill="#4472C4"/><rect x="22.5001" y="19.5001" width="111" height="112" stroke="#172C51" stroke-width="1.33333" stroke-miterlimit="8" fill="#4472C4"/><rect x="156.5" y="19.5001" width="111" height="112" stroke="#172C51" stroke-width="1.33333" stroke-miterlimit="8" fill="#4472C4"/><rect x="299.5" y="19.5001" width="111" height="112" stroke="#172C51" stroke-width="1.33333" stroke-miterlimit="8" fill="#4472C4"/><rect x="441.5" y="19.5001" width="112" height="112" stroke="#172C51" stroke-width="1.33333" stroke-miterlimit="8" fill="#4472C4"/><rect x="584.5" y="20.5001" width="112" height="112" stroke="#172C51" stroke-width="1.33333" stroke-miterlimit="8" fill="#4472C4"/><rect x="22.5001" y="172.5" width="111" height="112" stroke="#172C51" stroke-width="1.33333" stroke-miterlimit="8" fill="#4472C4"/><rect x="156.5" y="172.5" width="111" height="112" stroke="#172C51" stroke-width="1.33333" stroke-miterlimit="8" fill="#4472C4"/><rect x="299.5" y="172.5" width="111" height="112" stroke="#172C51" stroke-width="1.33333" stroke-miterlimit="8" fill="#4472C4"/><rect x="441.5" y="172.5" width="112" height="112" stroke="#172C51" stroke-width="1.33333" stroke-miterlimit="8" fill="#4472C4"/><rect x="584.5" y="173.5" width="112" height="112" stroke="#172C51" stroke-width="1.33333" stroke-miterlimit="8" fill="#4472C4"/><rect x="22.5001" y="326.5" width="111" height="111" stroke="#172C51" stroke-width="1.33333" stroke-miterlimit="8" fill="#4472C4"/><rect x="156.5" y="326.5" width="111" height="111" stroke="#172C51" stroke-width="1.33333" stroke-miterlimit="8" fill="#4472C4"/><rect x="299.5" y="326.5" width="111" height="111" stroke="#172C51" stroke-width="1.33333" stroke-miterlimit="8" fill="#4472C4"/><rect x="441.5" y="326.5" width="112" height="111" stroke="#172C51" stroke-width="1.33333" stroke-miterlimit="8" fill="#4472C4"/><rect x="584.5" y="327.5" width="112" height="111" stroke="#172C51" stroke-width="1.33333" stroke-miterlimit="8" fill="#4472C4"/><rect x="22.5001" y="463.5" width="111" height="112" stroke="#172C51" stroke-width="1.33333" stroke-miterlimit="8" fill="#4472C4"/><rect x="156.5" y="463.5" width="111" height="112" stroke="#172C51" stroke-width="1.33333" stroke-miterlimit="8" fill="#4472C4"/><rect x="299.5" y="463.5" width="111" height="112" stroke="#172C51" stroke-width="1.33333" stroke-miterlimit="8" fill="#4472C4"/><rect x="441.5" y="463.5" width="112" height="112" stroke="#172C51" stroke-width="1.33333" stroke-miterlimit="8" fill="#4472C4"/><rect x="584.5" y="464.5" width="112" height="112" stroke="#172C51" stroke-width="1.33333" stroke-miterlimit="8" fill="#4472C4"/></g></svg>