<svg width="1280" height="720" xmlns="http://www.w3.org/2000/svg" xmlns:xlink="http://www.w3.org/1999/xlink" overflow="hidden"><defs><clipPath id="clip0"><rect x="0" y="0" width="1280" height="720"/></clipPath></defs><g clip-path="url(#clip0)"><rect x="0" y="0" width="1280" height="720" fill="#FFFFFF"/><path d="M-6 626 1280.34 626" stroke="#000000" stroke-width="6" stroke-miterlimit="8" fill="none" fill-rule="evenodd"/><path d="M0 0 128 0 128 78.2858 0 78.2858Z" fill="#FFF4E7" fill-rule="evenodd"/><path d="M128 0 256 0 256 78.2858 128 78.2858Z" fill="#FFF4E7" fill-rule="evenodd"/><path d="M256 0 384 0 384 78.2858 256 78.2858Z" fill="#FFF4E7" fill-rule="evenodd"/><path d="M384 0 512 0 512 78.2858 384 78.2858Z" fill="#FFF4E7" fill-rule="evenodd"/><path d="M512 0 640 0 640 78.2858 512 78.2858Z" fill="#FFF4E7" fill-rule="evenodd"/><path d="M640 0 768 0 768 78.2858 640 78.2858Z" fill="#FFF4E7" fill-rule="evenodd"/><path d="M768 0 896 0 896 78.2858 768 78.2858Z" fill="#FFF4E7" fill-rule="evenodd"/><path d="M896 0 1024 0 1024 78.2858 896 78.2858Z" fill="#FFF4E7" fill-rule="evenodd"/><path d="M1024 0 1152 0 1152 78.2858 1024 78.2858Z" fill="#FFF4E7" fill-rule="evenodd"/><path d="M1152 0 1280 0 1280 78.2858 1152 78.2858Z" fill="#FFF4E7" fill-rule="evenodd"/><path d="M0 78.2858 128 78.2858 128 156.572 0 156.572Z" fill="#FFE8CB" fill-rule="evenodd"/><path d="M128 78.2858 256 78.2858 256 156.572 128 156.572Z" fill="#FFE8CB" fill-rule="evenodd"/><path d="M256 78.2858 384 78.2858 384 156.572 256 156.572Z" fill="#FFE8CB" fill-rule="evenodd"/><path d="M384 78.2858 512 78.2858 512 156.572 384 156.572Z" fill="#FFE8CB" fill-rule="evenodd"/><path d="M512 78.2858 640 78.2858 640 156.572 512 156.572Z" fill="#FFE8CB" fill-rule="evenodd"/><path d="M640 78.2858 768 78.2858 768 156.572 640 156.572Z" fill="#FFE8CB" fill-rule="evenodd"/><path d="M768 78.2858 896 78.2858 896 156.572 768 156.572Z" fill="#FFE8CB" fill-rule="evenodd"/><path d="M896 78.2858 1024 78.2858 1024 156.572 896 156.572Z" fill="#FFE8CB" fill-rule="evenodd"/><path d="M1024 78.2858 1152 78.2858 1152 156.572 1024 156.572Z" fill="#FFE8CB" fill-rule="evenodd"/><path d="M1152 78.2858 1280 78.2858 1280 156.572 1152 156.572Z" fill="#FFE8CB" fill-rule="evenodd"/><path d="M0 156.572 128 156.572 128 234.857 0 234.857Z" fill="#FFF4E7" fill-rule="evenodd"/><path d="M128 156.572 256 156.572 256 234.857 128 234.857Z" fill="#FFF4E7" fill-rule="evenodd"/><path d="M256 156.572 384 156.572 384 234.857 256 234.857Z" fill="#FFF4E7" fill-rule="evenodd"/><path d="M384 156.572 512 156.572 512 234.857 384 234.857Z" fill="#FFF4E7" fill-rule="evenodd"/><path d="M512 156.572 640 156.572 640 234.857 512 234.857Z" fill="#FFF4E7" fill-rule="evenodd"/><path d="M640 156.572 768 156.572 768 234.857 640 234.857Z" fill="#FFF4E7" fill-rule="evenodd"/><path d="M768 156.572 896 156.572 896 234.857 768 234.857Z" fill="#FFF4E7" fill-rule="evenodd"/><path d="M896 156.572 1024 156.572 1024 234.857 896 234.857Z" fill="#FFF4E7" fill-rule="evenodd"/><path d="M1024 156.572 1152 156.572 1152 234.857 1024 234.857Z" fill="#FFF4E7" fill-rule="evenodd"/><path d="M1152 156.572 1280 156.572 1280 234.857 1152 234.857Z" fill="#FFF4E7" fill-rule="evenodd"/><path d="M0 234.857 128 234.857 128 313.143 0 313.143Z" fill="#FFE8CB" fill-rule="evenodd"/><path d="M128 234.857 256 234.857 256 313.143 128 313.143Z" fill="#FFE8CB" fill-rule="evenodd"/><path d="M256 234.857 384 234.857 384 313.143 256 313.143Z" fill="#FFE8CB" fill-rule="evenodd"/><path d="M384 234.857 512 234.857 512 313.143 384 313.143Z" fill="#FFE8CB" fill-rule="evenodd"/><path d="M512 234.857 640 234.857 640 313.143 512 313.143Z" fill="#FFE8CB" fill-rule="evenodd"/><path d="M640 234.857 768 234.857 768 313.143 640 313.143Z" fill="#FFE8CB" fill-rule="evenodd"/><path d="M768 234.857 896 234.857 896 313.143 768 313.143Z" fill="#FFE8CB" fill-rule="evenodd"/><path d="M896 234.857 1024 234.857 1024 313.143 896 313.143Z" fill="#FFE8CB" fill-rule="evenodd"/><path d="M1024 234.857 1152 234.857 1152 313.143 1024 313.143Z" fill="#FFE8CB" fill-rule="evenodd"/><path d="M1152 234.857 1280 234.857 1280 313.143 1152 313.143Z" fill="#FFE8CB" fill-rule="evenodd"/><path d="M0 313.143 128 313.143 128 391.429 0 391.429Z" fill="#FFF4E7" fill-rule="evenodd"/><path d="M128 313.143 256 313.143 256 391.429 128 391.429Z" fill="#FFF4E7" fill-rule="evenodd"/><path d="M256 313.143 384 313.143 384 391.429 256 391.429Z" fill="#FFF4E7" fill-rule="evenodd"/><path d="M384 313.143 512 313.143 512 391.429 384 391.429Z" fill="#FFF4E7" fill-rule="evenodd"/><path d="M512 313.143 640 313.143 640 391.429 512 391.429Z" fill="#FFF4E7" fill-rule="evenodd"/><path d="M640 313.143 768 313.143 768 391.429 640 391.429Z" fill="#FFF4E7" fill-rule="evenodd"/><path d="M768 313.143 896 313.143 896 391.429 768 391.429Z" fill="#FFF4E7" fill-rule="evenodd"/><path d="M896 313.143 1024 313.143 1024 391.429 896 391.429Z" fill="#FFF4E7" fill-rule="evenodd"/><path d="M1024 313.143 1152 313.143 1152 391.429 1024 391.429Z" fill="#FFF4E7" fill-rule="evenodd"/><path d="M1152 313.143 1280 313.143 1280 391.429 1152 391.429Z" fill="#FFF4E7" fill-rule="evenodd"/><path d="M0 391.429 128 391.429 128 469.715 0 469.715Z" fill="#FFE8CB" fill-rule="evenodd"/><path d="M128 391.429 256 391.429 256 469.715 128 469.715Z" fill="#FFE8CB" fill-rule="evenodd"/><path d="M256 391.429 384 391.429 384 469.715 256 469.715Z" fill="#FFE8CB" fill-rule="evenodd"/><path d="M384 391.429 512 391.429 512 469.715 384 469.715Z" fill="#FFE8CB" fill-rule="evenodd"/><path d="M512 391.429 640 391.429 640 469.715 512 469.715Z" fill="#FFE8CB" fill-rule="evenodd"/><path d="M640 391.429 768 391.429 768 469.715 640 469.715Z" fill="#FFE8CB" fill-rule="evenodd"/><path d="M768 391.429 896 391.429 896 469.715 768 469.715Z" fill="#FFE8CB" fill-rule="evenodd"/><path d="M896 391.429 1024 391.429 1024 469.715 896 469.715Z" fill="#FFE8CB" fill-rule="evenodd"/><path d="M1024 391.429 1152 391.429 1152 469.715 1024 469.715Z" fill="#FFE8CB" fill-rule="evenodd"/><path d="M1152 391.429 1280 391.429 1280 469.715 1152 469.715Z" fill="#FFE8CB" fill-rule="evenodd"/><path d="M0 469.715 128 469.715 128 548 0 548Z" fill="#FFF4E7" fill-rule="evenodd"/><path d="M128 469.715 256 469.715 256 548 128 548Z" fill="#FFF4E7" fill-rule="evenodd"/><path d="M256 469.715 384 469.715 384 548 256 548Z" fill="#FFF4E7" fill-rule="evenodd"/><path d="M384 469.715 512 469.715 512 548 384 548Z" fill="#FFF4E7" fill-rule="evenodd"/><path d="M512 469.715 640 469.715 640 548 512 548Z" fill="#FFF4E7" fill-rule="evenodd"/><path d="M640 469.715 768 469.715 768 548 640 548Z" fill="#FFF4E7" fill-rule="evenodd"/><path d="M768 469.715 896 469.715 896 548 768 548Z" fill="#FFF4E7" fill-rule="evenodd"/><path d="M896 469.715 1024 469.715 1024 548 896 548Z" fill="#FFF4E7" fill-rule="evenodd"/><path d="M1024 469.715 1152 469.715 1152 548 1024 548Z" fill="#FFF4E7" fill-rule="evenodd"/><path d="M1152 469.715 1280 469.715 1280 548 1152 548Z" fill="#FFF4E7" fill-rule="evenodd"/><path d="M0 548 128 548 128 626.286 0 626.286Z" fill="#FFE8CB" fill-rule="evenodd"/><path d="M128 548 256 548 256 626.286 128 626.286Z" fill="#FFE8CB" fill-rule="evenodd"/><path d="M256 548 384 548 384 626.286 256 626.286Z" fill="#FFE8CB" fill-rule="evenodd"/><path d="M384 548 512 548 512 626.286 384 626.286Z" fill="#FFE8CB" fill-rule="evenodd"/><path d="M512 548 640 548 640 626.286 512 626.286Z" fill="#FFE8CB" fill-rule="evenodd"/><path d="M640 548 768 548 768 626.286 640 626.286Z" fill="#FFE8CB" fill-rule="evenodd"/><path d="M768 548 896 548 896 626.286 768 626.286Z" fill="#FFE8CB" fill-rule="evenodd"/><path d="M896 548 1024 548 1024 626.286 896 626.286Z" fill="#FFE8CB" fill-rule="evenodd"/><path d="M1024 548 1152 548 1152 626.286 1024 626.286Z" fill="#FFE8CB" fill-rule="evenodd"/><path d="M1152 548 1280 548 1280 626.286 1152 626.286Z" fill="#FFE8CB" fill-rule="evenodd"/><path d="M128-0.666667 128 626.953" stroke="#FFC000" stroke-width="1.33333" stroke-linejoin="round" stroke-miterlimit="10" fill="none" fill-rule="evenodd"/><path d="M256-0.666667 256 626.953" stroke="#FFC000" stroke-width="1.33333" stroke-linejoin="round" stroke-miterlimit="10" fill="none" fill-rule="evenodd"/><path d="M384-0.666667 384 626.953" stroke="#FFC000" stroke-width="1.33333" stroke-linejoin="round" stroke-miterlimit="10" fill="none" fill-rule="evenodd"/><path d="M512-0.666667 512 626.953" stroke="#FFC000" stroke-width="1.33333" stroke-linejoin="round" stroke-miterlimit="10" fill="none" fill-rule="evenodd"/><path d="M640-0.666667 640 626.953" stroke="#FFC000" stroke-width="1.33333" stroke-linejoin="round" stroke-miterlimit="10" fill="none" fill-rule="evenodd"/><path d="M768-0.666667 768 626.953" stroke="#FFC000" stroke-width="1.33333" stroke-linejoin="round" stroke-miterlimit="10" fill="none" fill-rule="evenodd"/><path d="M896-0.666667 896 626.953" stroke="#FFC000" stroke-width="1.33333" stroke-linejoin="round" stroke-miterlimit="10" fill="none" fill-rule="evenodd"/><path d="M1024-0.666667 1024 626.953" stroke="#FFC000" stroke-width="1.33333" stroke-linejoin="round" stroke-miterlimit="10" fill="none" fill-rule="evenodd"/><path d="M1152-0.666667 1152 626.953" stroke="#FFC000" stroke-width="1.33333" stroke-linejoin="round" stroke-miterlimit="10" fill="none" fill-rule="evenodd"/><path d="M-0.666667 78.2858 1280.67 78.2858" stroke="#FFC000" stroke-width="1.33333" stroke-linejoin="round" stroke-miterlimit="10" fill="none" fill-rule="evenodd"/><path d="M-0.666667 156.572 1280.67 156.572" stroke="#FFC000" stroke-width="1.33333" stroke-linejoin="round" stroke-miterlimit="10" fill="none" fill-rule="evenodd"/><path d="M-0.666667 234.857 1280.67 234.857" stroke="#FFC000" stroke-width="1.33333" stroke-linejoin="round" stroke-miterlimit="10" fill="none" fill-rule="evenodd"/><path d="M-0.666667 313.143 1280.67 313.143" stroke="#FFC000" stroke-width="1.33333" stroke-linejoin="round" stroke-miterlimit="10" fill="none" fill-rule="evenodd"/><path d="M-0.666667 391.429 1280.67 391.429" stroke="#FFC000" stroke-width="1.33333" stroke-linejoin="round" stroke-miterlimit="10" fill="none" fill-rule="evenodd"/><path d="M-0.666667 469.715 1280.67 469.715" stroke="#FFC000" stroke-width="1.33333" stroke-linejoin="round" stroke-miterlimit="10" fill="none" fill-rule="evenodd"/><path d="M-0.666667 548 1280.67 548" stroke="#FFC000" stroke-width="1.33333" stroke-linejoin="round" stroke-miterlimit="10" fill="none" fill-rule="evenodd"/><path d="M0-0.666667 0 626.953" stroke="#FFC000" stroke-width="1.33333" stroke-linejoin="round" stroke-miterlimit="10" fill="none" fill-rule="evenodd"/><path d="M1280-0.666667 1280 626.953" stroke="#FFC000" stroke-width="1.33333" stroke-linejoin="round" stroke-miterlimit="10" fill="none" fill-rule="evenodd"/><path d="M-0.666667 0 1280.67 0" stroke="#FFC000" stroke-width="1.33333" stroke-linejoin="round" stroke-miterlimit="10" fill="none" fill-rule="evenodd"/><path d="M-0.666667 626.286 1280.67 626.286" stroke="#FFC000" stroke-width="1.33333" stroke-linejoin="round" stroke-miterlimit="10" fill="none" fill-rule="evenodd"/></g></svg>