<svg width="1280" height="720" xmlns="http://www.w3.org/2000/svg" xmlns:xlink="http://www.w3.org/1999/xlink" overflow="hidden"><defs><clipPath id="clip0"><rect x="0" y="0" width="1280" height="720"/></clipPath></defs><g clip-path="url(#clip0)"><rect x="0" y="0" width="1280" height="720" fill="#FFFFFF"/><path d="M-6 626 1280.34 626" stroke="#000000" stroke-width="6" stroke-miterlimit="8" fill="none" fill-rule="evenodd"/><path d="M30.5001 43.0004C30.5001 32.2307 39.2307 23.5001 50.0004 23.5001L128 23.5001C138.769 23.5001 147.5 32.2307 147.5 43.0004L147.5 121C147.5 131.769 138.769 140.5 128 140.5L50.0004 140.5C39.2307 140.5 30.5001 131.769 30.5001 121Z" stroke="#172C51" stroke-width="1.33333" stroke-miterlimit="8" fill="#4472C4" fill-rule="evenodd"/><path d="M30.5001 175C30.5001 164.231 39.2307 155.5 50.0004 155.5L128 155.5C138.769 155.5 147.5 164.231 147.5 175L147.5 253C147.5 263.769 138.769 272.5 128 272.5L50.0004 272.5C39.2307 272.5 30.5001 263.769 30.5001 253Z" stroke="#172C51" stroke-width="1.33333" stroke-miterlimit="8" fill="#4472C4" fill-rule="evenodd"/><path d="M30.5001 307C30.5001 296.231 39.2307 287.5 50.0004 287.5L128 287.5C138.769 287.5 147.5 296.231 147.5 307L147.5 385C147.5 395.769 138.769 404.5 128 404.5L50.0004 404.5C39.2307 404.5 30.5001 395.769 30.5001 385Z" stroke="#172C51" stroke-width="1.33333" stroke-miterlimit="8" fill="#4472C4" fill-rule="evenodd"/><path d="M30.5001 438C30.5001 427.231 39.2307 418.5 50.0004 418.5L128 418.5C138.769 418.5 147.5 427.231 147.5 438L147.5 517C147.5 527.769 138.769 536.5 128 536.5L50.0004 536.5C39.2307 536.5 30.5001 527.769 30.5001 517Z" stroke="#172C51" stroke-width="1.33333" stroke-miterlimit="8" fill="#4472C4" fill-rule="evenodd"/><path d="M176.5 43.0004C176.5 32.2307 185.231 23.5001 196 23.5001L274 23.5001C284.769 23.5001 293.5 32.2307 293.5 43.0004L293.5 121C293.5 131.769 284.769 140.5 274 140.5L196 140.5C185.231 140.5 176.5 131.769 176.5 121Z" stroke="#172C51" stroke-width="1.33333" stroke-miterlimit="8" fill="#4472C4" fill-rule="evenodd"/><path d="M176.5 175C176.5 164.231 185.231 155.5 196 155.5L274 155.5C284.769 155.5 293.5 164.231 293.5 175L293.5 253C293.5 263.769 284.769 272.5 274 272.5L196 272.5C185.231 272.5 176.5 263.769 176.5 253Z" stroke="#172C51" stroke-width="1.33333" stroke-miterlimit="8" fill="#4472C4" fill-rule="evenodd"/><path d="M176.5 307C176.5 296.231 185.231 287.5 196 287.5L274 287.5C284.769 287.5 293.5 296.231 293.5 307L293.5 385C293.5 395.769 284.769 404.5 274 404.5L196 404.5C185.231 404.5 176.5 395.769 176.5 385Z" stroke="#172C51" stroke-width="1.33333" stroke-miterlimit="8" fill="#4472C4" fill-rule="evenodd"/><path d="M176.5 438C176.5 427.231 185.231 418.5 196 418.5L274 418.5C284.769 418.5 293.5 427.231 293.5 438L293.5 517C293.5 527.769 284.769 536.5 274 536.5L196 536.5C185.231 536.5 176.5 527.769 176.5 517Z" stroke="#172C51" stroke-width="1.33333" stroke-miterlimit="8" fill="#4472C4" fill-rule="evenodd"/><path d="M334.5 43.0004C334.5 32.2307 343.231 23.5001 354 23.5001L432 23.5001C442.769 23.5001 451.5 32.2307 451.5 43.0004L451.5 121C451.5 131.769 442.769 140.5 432 140.5L354 140.5C343.231 140.5 334.5 131.769 334.5 121Z" stroke="#172C51" stroke-width="1.33333" stroke-miterlimit="8" fill="#4472C4" fill-rule="evenodd"/><path d="M334.5 175C334.5 164.231 343.231 155.5 354 155.5L432 155.5C442.769 155.5 451.5 164.231 451.5 175L451.5 253C451.5 263.769 442.769 272.5 432 272.5L354 272.5C343.231 272.5 334.5 263.769 334.5 253Z" stroke="#172C51" stroke-width="1.33333" stroke-miterlimit="8" fill="#4472C4" fill-rule="evenodd"/><path d="M334.5 307C334.5 296.231 343.231 287.5 354 287.5L432 287.5C442.769 287.5 451.5 296.231 451.5 307L451.5 385C451.5 395.769 442.769 404.5 432 404.5L354 404.5C343.231 404.5 334.5 395.769 334.5 385Z" stroke="#172C51" stroke-width="1.33333" stroke-miterlimit="8" fill="#4472C4" fill-rule="evenodd"/><path d="M334.5 438C334.5 427.231 343.231 418.5 354 418.5L432 418.5C442.769 418.5 451.5 427.231 451.5 438L451.5 517C451.5 527.769 442.769 536.5 432 536.5L354 536.5C343.231 536.5 334.5 527.769 334.5 517Z" stroke="#172C51" stroke-width="1.33333" stroke-miterlimit="8" fill="#FFC000" fill-rule="evenodd"/><path d="M492.5 43.0004C492.5 32.2307 501.231 23.5001 512 23.5001L591 23.5001C601.769 23.5001 610.5 32.2307 610.5 43.0004L610.5 121C610.5 131.769 601.769 140.5 591 140.5L512 140.5C501.231 140.5 492.5 131.769 492.5 121Z" stroke="#172C51" stroke-width="1.33333" stroke-miterlimit="8" fill="#4472C4" fill-rule="evenodd"/><path d="M492.5 175C492.5 164.231 501.231 155.5 512 155.5L591 155.5C601.769 155.5 610.5 164.231 610.5 175L610.5 253C610.5 263.769 601.769 272.5 591 272.5L512 272.5C501.231 272.5 492.5 263.769 492.5 253Z" stroke="#172C51" stroke-width="1.33333" stroke-miterlimit="8" fill="#4472C4" fill-rule="evenodd"/><path d="M492.5 307C492.5 296.231 501.231 287.5 512 287.5L591 287.5C601.769 287.5 610.5 296.231 610.5 307L610.5 385C610.5 395.769 601.769 404.5 591 404.5L512 404.5C501.231 404.5 492.5 395.769 492.5 385Z" stroke="#172C51" stroke-width="1.33333" stroke-miterlimit="8" fill="#4472C4" fill-rule="evenodd"/><path d="M492.5 438.167C492.5 427.305 501.305 418.5 512.167 418.5L590.833 418.5C601.695 418.5 610.5 427.305 610.5 438.167L610.5 516.833C610.5 527.695 601.695 536.5 590.833 536.5L512.167 536.5C501.305 536.5 492.5 527.695 492.5 516.833Z" stroke="#172C51" stroke-width="1.33333" stroke-miterlimit="8" fill="#FFC000" fill-rule="evenodd"/><path d="M640.5 43.0003C640.5 32.2306 649.231 23.5001 660 23.5001L1231 23.5001C1241.77 23.5001 1250.5 32.2306 1250.5 43.0003L1250.5 121C1250.5 131.77 1241.77 140.5 1231 140.5L660 140.5C649.231 140.5 640.5 131.77 640.5 121Z" stroke="#172C51" stroke-width="1.33333" stroke-miterlimit="8" fill="#4472C4" fill-rule="evenodd"/><path d="M640.5 175C640.5 164.231 649.231 155.5 660 155.5L738 155.5C748.769 155.5 757.5 164.231 757.5 175L757.5 253C757.5 263.769 748.769 272.5 738 272.5L660 272.5C649.231 272.5 640.5 263.769 640.5 253Z" stroke="#172C51" stroke-width="1.33333" stroke-miterlimit="8" fill="#4472C4" fill-rule="evenodd"/><path d="M640.5 307C640.5 296.231 649.231 287.5 660 287.5L738 287.5C748.769 287.5 757.5 296.231 757.5 307L757.5 385C757.5 395.769 748.769 404.5 738 404.5L660 404.5C649.231 404.5 640.5 395.769 640.5 385Z" stroke="#172C51" stroke-width="1.33333" stroke-miterlimit="8" fill="#4472C4" fill-rule="evenodd"/><path d="M788.5 175C788.5 164.231 797.231 155.5 808 155.5L886 155.5C896.769 155.5 905.5 164.231 905.5 175L905.5 253C905.5 263.769 896.769 272.5 886 272.5L808 272.5C797.231 272.5 788.5 263.769 788.5 253Z" stroke="#172C51" stroke-width="1.33333" stroke-miterlimit="8" fill="#4472C4" fill-rule="evenodd"/><path d="M788.5 307C788.5 296.231 797.231 287.5 808 287.5L886 287.5C896.769 287.5 905.5 296.231 905.5 307L905.5 385C905.5 395.769 896.769 404.5 886 404.5L808 404.5C797.231 404.5 788.5 395.769 788.5 385Z" stroke="#172C51" stroke-width="1.33333" stroke-miterlimit="8" fill="#4472C4" fill-rule="evenodd"/><path d="M935.5 175C935.5 164.231 944.231 155.5 955 155.5L1033 155.5C1043.77 155.5 1052.5 164.231 1052.5 175L1052.5 253C1052.5 263.769 1043.77 272.5 1033 272.5L955 272.5C944.231 272.5 935.5 263.769 935.5 253Z" stroke="#172C51" stroke-width="1.33333" stroke-miterlimit="8" fill="#4472C4" fill-rule="evenodd"/><path d="M935.5 307C935.5 296.231 944.231 287.5 955 287.5L1033 287.5C1043.77 287.5 1052.5 296.231 1052.5 307L1052.5 385C1052.5 395.769 1043.77 404.5 1033 404.5L955 404.5C944.231 404.5 935.5 395.769 935.5 385Z" stroke="#172C51" stroke-width="1.33333" stroke-miterlimit="8" fill="#4472C4" fill-rule="evenodd"/><path d="M1083.5 175C1083.5 164.231 1092.23 155.5 1103 155.5L1181 155.5C1191.77 155.5 1200.5 164.231 1200.5 175L1200.5 253C1200.5 263.769 1191.77 272.5 1181 272.5L1103 272.5C1092.23 272.5 1083.5 263.769 1083.5 253Z" stroke="#172C51" stroke-width="1.33333" stroke-miterlimit="8" fill="#4472C4" fill-rule="evenodd"/><path d="M1083.5 307C1083.5 296.231 1092.23 287.5 1103 287.5L1181 287.5C1191.77 287.5 1200.5 296.231 1200.5 307L1200.5 385C1200.5 395.769 1191.77 404.5 1181 404.5L1103 404.5C1092.23 404.5 1083.5 395.769 1083.5 385Z" stroke="#172C51" stroke-width="1.33333" stroke-miterlimit="8" fill="#4472C4" fill-rule="evenodd"/><path d="M640.5 438.167C640.5 427.305 649.305 418.5 660.167 418.5L1230.83 418.5C1241.69 418.5 1250.5 427.305 1250.5 438.167L1250.5 516.833C1250.5 527.695 1241.69 536.5 1230.83 536.5L660.167 536.5C649.305 536.5 640.5 527.695 640.5 516.833Z" stroke="#172C51" stroke-width="1.33333" stroke-miterlimit="8" fill="#FFC000" fill-rule="evenodd"/></g></svg>