<svg width="1280" height="720" xmlns="http://www.w3.org/2000/svg" xmlns:xlink="http://www.w3.org/1999/xlink" overflow="hidden"><defs><clipPath id="clip0"><rect x="0" y="0" width="1280" height="720"/></clipPath></defs><g clip-path="url(#clip0)"><rect x="0" y="0" width="1280" height="720" fill="#FFFFFF"/><rect x="-7" y="-9" width="1299" height="635" stroke="#000000" stroke-width="8" stroke-miterlimit="8" fill="none"/><path d="M901.5 309 799.808 345.236 799.808 272.764ZM827.673 130.45 781.351 228.132 730.208 176.888ZM649.5 56.5001 685.664 158.394 613.336 158.394ZM471.303 130.45 568.792 176.888 517.649 228.132ZM397.5 309 499.192 272.764 499.192 345.236ZM471.303 487.527 517.649 389.868 568.792 441.112ZM649.5 561.5 613.336 459.606 685.664 459.606ZM827.673 487.527 730.208 441.112 781.351 389.868ZM523.5 309C523.5 239.274 579.912 182.75 649.5 182.75 719.088 182.75 775.5 239.274 775.5 309 775.5 378.726 719.088 435.25 649.5 435.25 579.912 435.25 523.5 378.726 523.5 309Z" stroke="#64310F" stroke-width="1.33333" stroke-miterlimit="8" fill="#ED7D31" fill-rule="evenodd"/></g></svg>