<?xml version="1.0" standalone="no"?>
<!DOCTYPE svg PUBLIC "-//W3C//DTD SVG 20010904//EN"
 "http://www.w3.org/TR/2001/REC-SVG-20010904/DTD/svg10.dtd">
<svg version="1.0" xmlns="http://www.w3.org/2000/svg"
 width="1280.000000pt" height="720.000000pt" viewBox="0 0 1280.000000 720.000000"
 preserveAspectRatio="xMidYMid meet">

<g transform="translate(0.000000,720.000000) scale(0.100000,-0.100000)"
fill="#000000" stroke="none">
<path d="M668 7193 c336 -2 888 -2 1225 0 336 1 61 2 -613 2 -674 0 -949 -1
-612 -2z"/>
<path d="M3228 7193 c336 -2 888 -2 1225 0 336 1 61 2 -613 2 -674 0 -949 -1
-612 -2z"/>
<path d="M5788 7193 c336 -2 888 -2 1225 0 336 1 61 2 -613 2 -674 0 -949 -1
-612 -2z"/>
<path d="M8348 7193 c336 -2 888 -2 1225 0 336 1 61 2 -613 2 -674 0 -949 -1
-612 -2z"/>
<path d="M10908 7193 c336 -2 888 -2 1225 0 336 1 61 2 -613 2 -674 0 -949 -1
-612 -2z"/>
<path d="M2550 7150 c0 -5 5 -10 10 -10 6 0 10 5 10 10 0 6 -4 10 -10 10 -5 0
-10 -4 -10 -10z"/>
<path d="M5110 7150 c0 -5 5 -10 10 -10 6 0 10 5 10 10 0 6 -4 10 -10 10 -5 0
-10 -4 -10 -10z"/>
<path d="M7670 7150 c0 -5 5 -10 10 -10 6 0 10 5 10 10 0 6 -4 10 -10 10 -5 0
-10 -4 -10 -10z"/>
<path d="M10230 7150 c0 -5 5 -10 10 -10 6 0 10 5 10 10 0 6 -4 10 -10 10 -5
0 -10 -4 -10 -10z"/>
<path d="M5 6285 c0 -467 1 -657 2 -422 2 236 2 618 0 850 -1 232 -2 40 -2
-428z"/>
<path d="M2550 6285 c0 -557 3 -845 10 -845 7 0 10 288 10 845 0 557 -3 845
-10 845 -7 0 -10 -288 -10 -845z"/>
<path d="M5110 6285 c0 -557 3 -845 10 -845 7 0 10 288 10 845 0 557 -3 845
-10 845 -7 0 -10 -288 -10 -845z"/>
<path d="M7670 6285 c0 -557 3 -845 10 -845 7 0 10 288 10 845 0 557 -3 845
-10 845 -7 0 -10 -288 -10 -845z"/>
<path d="M10230 6285 c0 -557 3 -845 10 -845 7 0 10 288 10 845 0 557 -3 845
-10 845 -7 0 -10 -288 -10 -845z"/>
<path d="M12795 6285 c0 -467 1 -657 2 -422 2 236 2 618 0 850 -1 232 -2 40
-2 -428z"/>
<path d="M2 5400 c0 -19 2 -27 5 -17 2 9 2 25 0 35 -3 9 -5 1 -5 -18z"/>
<path d="M2550 5400 c0 -16 5 -30 10 -30 6 0 10 14 10 30 0 17 -4 30 -10 30
-5 0 -10 -13 -10 -30z"/>
<path d="M5110 5400 c0 -16 5 -30 10 -30 6 0 10 14 10 30 0 17 -4 30 -10 30
-5 0 -10 -13 -10 -30z"/>
<path d="M7670 5400 c0 -16 5 -30 10 -30 6 0 10 14 10 30 0 17 -4 30 -10 30
-5 0 -10 -13 -10 -30z"/>
<path d="M10230 5400 c0 -16 5 -30 10 -30 6 0 10 14 10 30 0 17 -4 30 -10 30
-5 0 -10 -13 -10 -30z"/>
<path d="M12792 5400 c0 -19 2 -27 5 -17 2 9 2 25 0 35 -3 9 -5 1 -5 -18z"/>
<path d="M20 5400 c0 -7 427 -10 1260 -10 833 0 1260 3 1260 10 0 7 -427 10
-1260 10 -833 0 -1260 -3 -1260 -10z"/>
<path d="M2580 5400 c0 -7 427 -10 1260 -10 833 0 1260 3 1260 10 0 7 -427 10
-1260 10 -833 0 -1260 -3 -1260 -10z"/>
<path d="M5140 5400 c0 -7 427 -10 1260 -10 833 0 1260 3 1260 10 0 7 -427 10
-1260 10 -833 0 -1260 -3 -1260 -10z"/>
<path d="M7700 5400 c0 -7 427 -10 1260 -10 833 0 1260 3 1260 10 0 7 -427 10
-1260 10 -833 0 -1260 -3 -1260 -10z"/>
<path d="M10260 5400 c0 -7 427 -10 1260 -10 833 0 1260 3 1260 10 0 7 -427
10 -1260 10 -833 0 -1260 -3 -1260 -10z"/>
<path d="M5 4515 c0 -467 1 -657 2 -422 2 236 2 618 0 850 -1 232 -2 40 -2
-428z"/>
<path d="M2550 4515 c0 -557 3 -845 10 -845 7 0 10 288 10 845 0 557 -3 845
-10 845 -7 0 -10 -288 -10 -845z"/>
<path d="M5110 4515 c0 -557 3 -845 10 -845 7 0 10 288 10 845 0 557 -3 845
-10 845 -7 0 -10 -288 -10 -845z"/>
<path d="M7670 4515 c0 -557 3 -845 10 -845 7 0 10 288 10 845 0 557 -3 845
-10 845 -7 0 -10 -288 -10 -845z"/>
<path d="M10230 4515 c0 -557 3 -845 10 -845 7 0 10 288 10 845 0 557 -3 845
-10 845 -7 0 -10 -288 -10 -845z"/>
<path d="M12795 4515 c0 -467 1 -657 2 -422 2 236 2 618 0 850 -1 232 -2 40
-2 -428z"/>
<path d="M2550 3650 c0 -5 5 -10 10 -10 6 0 10 5 10 10 0 6 -4 10 -10 10 -5 0
-10 -4 -10 -10z"/>
<path d="M5110 3650 c0 -5 5 -10 10 -10 6 0 10 5 10 10 0 6 -4 10 -10 10 -5 0
-10 -4 -10 -10z"/>
<path d="M7670 3650 c0 -5 5 -10 10 -10 6 0 10 5 10 10 0 6 -4 10 -10 10 -5 0
-10 -4 -10 -10z"/>
<path d="M10230 3650 c0 -5 5 -10 10 -10 6 0 10 5 10 10 0 6 -4 10 -10 10 -5
0 -10 -4 -10 -10z"/>
<path d="M60 3600 c0 -7 413 -10 1220 -10 807 0 1220 3 1220 10 0 7 -413 10
-1220 10 -807 0 -1220 -3 -1220 -10z"/>
<path d="M2550 3600 c0 -5 5 -10 10 -10 6 0 10 5 10 10 0 6 -4 10 -10 10 -5 0
-10 -4 -10 -10z"/>
<path d="M2620 3600 c0 -7 413 -10 1220 -10 807 0 1220 3 1220 10 0 7 -413 10
-1220 10 -807 0 -1220 -3 -1220 -10z"/>
<path d="M5110 3600 c0 -5 5 -10 10 -10 6 0 10 5 10 10 0 6 -4 10 -10 10 -5 0
-10 -4 -10 -10z"/>
<path d="M5180 3600 c0 -7 413 -10 1220 -10 807 0 1220 3 1220 10 0 7 -413 10
-1220 10 -807 0 -1220 -3 -1220 -10z"/>
<path d="M7670 3600 c0 -5 5 -10 10 -10 6 0 10 5 10 10 0 6 -4 10 -10 10 -5 0
-10 -4 -10 -10z"/>
<path d="M7740 3600 c0 -7 413 -10 1220 -10 807 0 1220 3 1220 10 0 7 -413 10
-1220 10 -807 0 -1220 -3 -1220 -10z"/>
<path d="M10230 3600 c0 -5 5 -10 10 -10 6 0 10 5 10 10 0 6 -4 10 -10 10 -5
0 -10 -4 -10 -10z"/>
<path d="M10300 3600 c0 -7 413 -10 1220 -10 807 0 1220 3 1220 10 0 7 -413
10 -1220 10 -807 0 -1220 -3 -1220 -10z"/>
<path d="M2550 3550 c0 -5 5 -10 10 -10 6 0 10 5 10 10 0 6 -4 10 -10 10 -5 0
-10 -4 -10 -10z"/>
<path d="M5110 3550 c0 -5 5 -10 10 -10 6 0 10 5 10 10 0 6 -4 10 -10 10 -5 0
-10 -4 -10 -10z"/>
<path d="M7670 3550 c0 -5 5 -10 10 -10 6 0 10 5 10 10 0 6 -4 10 -10 10 -5 0
-10 -4 -10 -10z"/>
<path d="M10230 3550 c0 -5 5 -10 10 -10 6 0 10 5 10 10 0 6 -4 10 -10 10 -5
0 -10 -4 -10 -10z"/>
<path d="M5 2685 c0 -467 1 -657 2 -422 2 236 2 618 0 850 -1 232 -2 40 -2
-428z"/>
<path d="M2550 2685 c0 -557 3 -845 10 -845 7 0 10 288 10 845 0 557 -3 845
-10 845 -7 0 -10 -288 -10 -845z"/>
<path d="M5110 2685 c0 -557 3 -845 10 -845 7 0 10 288 10 845 0 557 -3 845
-10 845 -7 0 -10 -288 -10 -845z"/>
<path d="M7670 2685 c0 -557 3 -845 10 -845 7 0 10 288 10 845 0 557 -3 845
-10 845 -7 0 -10 -288 -10 -845z"/>
<path d="M10230 2685 c0 -557 3 -845 10 -845 7 0 10 288 10 845 0 557 -3 845
-10 845 -7 0 -10 -288 -10 -845z"/>
<path d="M12795 2685 c0 -467 1 -657 2 -422 2 236 2 618 0 850 -1 232 -2 40
-2 -428z"/>
<path d="M2 1800 c0 -19 2 -27 5 -17 2 9 2 25 0 35 -3 9 -5 1 -5 -18z"/>
<path d="M2550 1800 c0 -16 5 -30 10 -30 6 0 10 14 10 30 0 17 -4 30 -10 30
-5 0 -10 -13 -10 -30z"/>
<path d="M5110 1800 c0 -16 5 -30 10 -30 6 0 10 14 10 30 0 17 -4 30 -10 30
-5 0 -10 -13 -10 -30z"/>
<path d="M7670 1800 c0 -16 5 -30 10 -30 6 0 10 14 10 30 0 17 -4 30 -10 30
-5 0 -10 -13 -10 -30z"/>
<path d="M10230 1800 c0 -16 5 -30 10 -30 6 0 10 14 10 30 0 17 -4 30 -10 30
-5 0 -10 -13 -10 -30z"/>
<path d="M12792 1800 c0 -19 2 -27 5 -17 2 9 2 25 0 35 -3 9 -5 1 -5 -18z"/>
<path d="M20 1800 c0 -7 427 -10 1260 -10 833 0 1260 3 1260 10 0 7 -427 10
-1260 10 -833 0 -1260 -3 -1260 -10z"/>
<path d="M2580 1800 c0 -7 427 -10 1260 -10 833 0 1260 3 1260 10 0 7 -427 10
-1260 10 -833 0 -1260 -3 -1260 -10z"/>
<path d="M5140 1800 c0 -7 427 -10 1260 -10 833 0 1260 3 1260 10 0 7 -427 10
-1260 10 -833 0 -1260 -3 -1260 -10z"/>
<path d="M7700 1800 c0 -7 427 -10 1260 -10 833 0 1260 3 1260 10 0 7 -427 10
-1260 10 -833 0 -1260 -3 -1260 -10z"/>
<path d="M10260 1800 c0 -7 427 -10 1260 -10 833 0 1260 3 1260 10 0 7 -427
10 -1260 10 -833 0 -1260 -3 -1260 -10z"/>
<path d="M5 915 c0 -467 1 -657 2 -422 2 236 2 618 0 850 -1 232 -2 40 -2
-428z"/>
<path d="M2550 915 c0 -557 3 -845 10 -845 7 0 10 288 10 845 0 557 -3 845
-10 845 -7 0 -10 -288 -10 -845z"/>
<path d="M5110 915 c0 -557 3 -845 10 -845 7 0 10 288 10 845 0 557 -3 845
-10 845 -7 0 -10 -288 -10 -845z"/>
<path d="M7670 915 c0 -557 3 -845 10 -845 7 0 10 288 10 845 0 557 -3 845
-10 845 -7 0 -10 -288 -10 -845z"/>
<path d="M10230 915 c0 -557 3 -845 10 -845 7 0 10 288 10 845 0 557 -3 845
-10 845 -7 0 -10 -288 -10 -845z"/>
<path d="M12795 915 c0 -467 1 -657 2 -422 2 236 2 618 0 850 -1 232 -2 40 -2
-428z"/>
<path d="M2550 50 c0 -5 5 -10 10 -10 6 0 10 5 10 10 0 6 -4 10 -10 10 -5 0
-10 -4 -10 -10z"/>
<path d="M5110 50 c0 -5 5 -10 10 -10 6 0 10 5 10 10 0 6 -4 10 -10 10 -5 0
-10 -4 -10 -10z"/>
<path d="M7670 50 c0 -5 5 -10 10 -10 6 0 10 5 10 10 0 6 -4 10 -10 10 -5 0
-10 -4 -10 -10z"/>
<path d="M10230 50 c0 -5 5 -10 10 -10 6 0 10 5 10 10 0 6 -4 10 -10 10 -5 0
-10 -4 -10 -10z"/>
<path d="M668 3 c336 -2 888 -2 1225 0 336 1 61 2 -613 2 -674 0 -949 -1 -612
-2z"/>
<path d="M3228 3 c336 -2 888 -2 1225 0 336 1 61 2 -613 2 -674 0 -949 -1
-612 -2z"/>
<path d="M5788 3 c336 -2 888 -2 1225 0 336 1 61 2 -613 2 -674 0 -949 -1
-612 -2z"/>
<path d="M8348 3 c336 -2 888 -2 1225 0 336 1 61 2 -613 2 -674 0 -949 -1
-612 -2z"/>
<path d="M10908 3 c336 -2 888 -2 1225 0 336 1 61 2 -613 2 -674 0 -949 -1
-612 -2z"/>
</g>
</svg>
