<svg width="1280" height="720" xmlns="http://www.w3.org/2000/svg" xmlns:xlink="http://www.w3.org/1999/xlink" overflow="hidden"><defs><clipPath id="clip0"><rect x="0" y="0" width="1280" height="720"/></clipPath></defs><g clip-path="url(#clip0)"><rect x="0" y="0" width="1280" height="720" fill="#FFFFFF"/><rect x="-7" y="-9" width="1299" height="635" stroke="#000000" stroke-width="8" stroke-miterlimit="8" fill="none"/><path d="M0 0 182.857 0 182.857 78.2858 0 78.2858Z" fill="#4472C4" fill-rule="evenodd"/><path d="M182.857 0 365.714 0 365.714 78.2858 182.857 78.2858Z" fill="#4472C4" fill-rule="evenodd"/><path d="M365.714 0 548.571 0 548.571 78.2858 365.714 78.2858Z" fill="#4472C4" fill-rule="evenodd"/><path d="M548.571 0 731.428 0 731.428 78.2858 548.571 78.2858Z" fill="#4472C4" fill-rule="evenodd"/><path d="M731.428 0 914.286 0 914.286 78.2858 731.428 78.2858Z" fill="#4472C4" fill-rule="evenodd"/><path d="M914.286 0 1097.14 0 1097.14 78.2858 914.286 78.2858Z" fill="#4472C4" fill-rule="evenodd"/><path d="M1097.14 0 1280 0 1280 78.2858 1097.14 78.2858Z" fill="#4472C4" fill-rule="evenodd"/><path d="M0 78.2858 182.857 78.2858 182.857 156.572 0 156.572Z" fill="#CFD5EA" fill-rule="evenodd"/><path d="M182.857 78.2858 365.714 78.2858 365.714 156.572 182.857 156.572Z" fill="#CFD5EA" fill-rule="evenodd"/><path d="M365.714 78.2858 548.571 78.2858 548.571 156.572 365.714 156.572Z" fill="#CFD5EA" fill-rule="evenodd"/><path d="M548.571 78.2858 731.428 78.2858 731.428 156.572 548.571 156.572Z" fill="#CFD5EA" fill-rule="evenodd"/><path d="M731.428 78.2858 914.286 78.2858 914.286 156.572 731.428 156.572Z" fill="#CFD5EA" fill-rule="evenodd"/><path d="M914.286 78.2858 1097.14 78.2858 1097.14 156.572 914.286 156.572Z" fill="#CFD5EA" fill-rule="evenodd"/><path d="M1097.14 78.2858 1280 78.2858 1280 156.572 1097.14 156.572Z" fill="#CFD5EA" fill-rule="evenodd"/><path d="M0 156.572 182.857 156.572 182.857 234.857 0 234.857Z" fill="#E9EBF5" fill-rule="evenodd"/><path d="M182.857 156.572 365.714 156.572 365.714 234.857 182.857 234.857Z" fill="#E9EBF5" fill-rule="evenodd"/><path d="M365.714 156.572 548.571 156.572 548.571 234.857 365.714 234.857Z" fill="#E9EBF5" fill-rule="evenodd"/><path d="M548.571 156.572 731.428 156.572 731.428 234.857 548.571 234.857Z" fill="#E9EBF5" fill-rule="evenodd"/><path d="M731.428 156.572 914.286 156.572 914.286 234.857 731.428 234.857Z" fill="#E9EBF5" fill-rule="evenodd"/><path d="M914.286 156.572 1097.14 156.572 1097.14 234.857 914.286 234.857Z" fill="#E9EBF5" fill-rule="evenodd"/><path d="M1097.14 156.572 1280 156.572 1280 234.857 1097.14 234.857Z" fill="#E9EBF5" fill-rule="evenodd"/><path d="M0 234.857 182.857 234.857 182.857 313.143 0 313.143Z" fill="#CFD5EA" fill-rule="evenodd"/><path d="M182.857 234.857 365.714 234.857 365.714 313.143 182.857 313.143Z" fill="#CFD5EA" fill-rule="evenodd"/><path d="M365.714 234.857 548.571 234.857 548.571 313.143 365.714 313.143Z" fill="#CFD5EA" fill-rule="evenodd"/><path d="M548.571 234.857 731.428 234.857 731.428 313.143 548.571 313.143Z" fill="#CFD5EA" fill-rule="evenodd"/><path d="M731.428 234.857 914.286 234.857 914.286 313.143 731.428 313.143Z" fill="#CFD5EA" fill-rule="evenodd"/><path d="M914.286 234.857 1097.14 234.857 1097.14 313.143 914.286 313.143Z" fill="#CFD5EA" fill-rule="evenodd"/><path d="M1097.14 234.857 1280 234.857 1280 313.143 1097.14 313.143Z" fill="#CFD5EA" fill-rule="evenodd"/><path d="M0 313.143 182.857 313.143 182.857 391.429 0 391.429Z" fill="#E9EBF5" fill-rule="evenodd"/><path d="M182.857 313.143 365.714 313.143 365.714 391.429 182.857 391.429Z" fill="#E9EBF5" fill-rule="evenodd"/><path d="M365.714 313.143 548.571 313.143 548.571 391.429 365.714 391.429Z" fill="#E9EBF5" fill-rule="evenodd"/><path d="M548.571 313.143 731.428 313.143 731.428 391.429 548.571 391.429Z" fill="#E9EBF5" fill-rule="evenodd"/><path d="M731.428 313.143 914.286 313.143 914.286 391.429 731.428 391.429Z" fill="#E9EBF5" fill-rule="evenodd"/><path d="M914.286 313.143 1097.14 313.143 1097.14 391.429 914.286 391.429Z" fill="#E9EBF5" fill-rule="evenodd"/><path d="M1097.14 313.143 1280 313.143 1280 391.429 1097.14 391.429Z" fill="#E9EBF5" fill-rule="evenodd"/><path d="M0 391.429 182.857 391.429 182.857 469.715 0 469.715Z" fill="#CFD5EA" fill-rule="evenodd"/><path d="M182.857 391.429 365.714 391.429 365.714 469.715 182.857 469.715Z" fill="#CFD5EA" fill-rule="evenodd"/><path d="M365.714 391.429 548.571 391.429 548.571 469.715 365.714 469.715Z" fill="#CFD5EA" fill-rule="evenodd"/><path d="M548.571 391.429 731.428 391.429 731.428 469.715 548.571 469.715Z" fill="#CFD5EA" fill-rule="evenodd"/><path d="M731.428 391.429 914.286 391.429 914.286 469.715 731.428 469.715Z" fill="#CFD5EA" fill-rule="evenodd"/><path d="M914.286 391.429 1097.14 391.429 1097.14 469.715 914.286 469.715Z" fill="#CFD5EA" fill-rule="evenodd"/><path d="M1097.14 391.429 1280 391.429 1280 469.715 1097.14 469.715Z" fill="#CFD5EA" fill-rule="evenodd"/><path d="M0 469.715 182.857 469.715 182.857 548 0 548Z" fill="#E9EBF5" fill-rule="evenodd"/><path d="M182.857 469.715 365.714 469.715 365.714 548 182.857 548Z" fill="#E9EBF5" fill-rule="evenodd"/><path d="M365.714 469.715 548.571 469.715 548.571 548 365.714 548Z" fill="#E9EBF5" fill-rule="evenodd"/><path d="M548.571 469.715 731.428 469.715 731.428 548 548.571 548Z" fill="#E9EBF5" fill-rule="evenodd"/><path d="M731.428 469.715 914.286 469.715 914.286 548 731.428 548Z" fill="#E9EBF5" fill-rule="evenodd"/><path d="M914.286 469.715 1097.14 469.715 1097.14 548 914.286 548Z" fill="#E9EBF5" fill-rule="evenodd"/><path d="M1097.14 469.715 1280 469.715 1280 548 1097.14 548Z" fill="#E9EBF5" fill-rule="evenodd"/><path d="M0 548 182.857 548 182.857 626.286 0 626.286Z" fill="#CFD5EA" fill-rule="evenodd"/><path d="M182.857 548 365.714 548 365.714 626.286 182.857 626.286Z" fill="#CFD5EA" fill-rule="evenodd"/><path d="M365.714 548 548.571 548 548.571 626.286 365.714 626.286Z" fill="#CFD5EA" fill-rule="evenodd"/><path d="M548.571 548 731.428 548 731.428 626.286 548.571 626.286Z" fill="#CFD5EA" fill-rule="evenodd"/><path d="M731.428 548 914.286 548 914.286 626.286 731.428 626.286Z" fill="#CFD5EA" fill-rule="evenodd"/><path d="M914.286 548 1097.14 548 1097.14 626.286 914.286 626.286Z" fill="#CFD5EA" fill-rule="evenodd"/><path d="M1097.14 548 1280 548 1280 626.286 1097.14 626.286Z" fill="#CFD5EA" fill-rule="evenodd"/><path d="M182.857-0.666667 182.857 626.953" stroke="#FFFFFF" stroke-width="1.33333" stroke-linejoin="round" stroke-miterlimit="10" fill="none" fill-rule="evenodd"/><path d="M365.714-0.666667 365.714 626.953" stroke="#FFFFFF" stroke-width="1.33333" stroke-linejoin="round" stroke-miterlimit="10" fill="none" fill-rule="evenodd"/><path d="M548.571-0.666667 548.571 626.953" stroke="#FFFFFF" stroke-width="1.33333" stroke-linejoin="round" stroke-miterlimit="10" fill="none" fill-rule="evenodd"/><path d="M731.428-0.666667 731.428 626.953" stroke="#FFFFFF" stroke-width="1.33333" stroke-linejoin="round" stroke-miterlimit="10" fill="none" fill-rule="evenodd"/><path d="M914.286-0.666667 914.286 626.953" stroke="#FFFFFF" stroke-width="1.33333" stroke-linejoin="round" stroke-miterlimit="10" fill="none" fill-rule="evenodd"/><path d="M1097.14-0.666667 1097.14 626.953" stroke="#FFFFFF" stroke-width="1.33333" stroke-linejoin="round" stroke-miterlimit="10" fill="none" fill-rule="evenodd"/><path d="M-0.666667 78.2858 1280.67 78.2858" stroke="#FFFFFF" stroke-width="4" stroke-linejoin="round" stroke-miterlimit="10" fill="none" fill-rule="evenodd"/><path d="M-0.666667 156.572 1280.67 156.572" stroke="#FFFFFF" stroke-width="1.33333" stroke-linejoin="round" stroke-miterlimit="10" fill="none" fill-rule="evenodd"/><path d="M-0.666667 234.857 1280.67 234.857" stroke="#FFFFFF" stroke-width="1.33333" stroke-linejoin="round" stroke-miterlimit="10" fill="none" fill-rule="evenodd"/><path d="M-0.666667 313.143 1280.67 313.143" stroke="#FFFFFF" stroke-width="1.33333" stroke-linejoin="round" stroke-miterlimit="10" fill="none" fill-rule="evenodd"/><path d="M-0.666667 391.429 1280.67 391.429" stroke="#FFFFFF" stroke-width="1.33333" stroke-linejoin="round" stroke-miterlimit="10" fill="none" fill-rule="evenodd"/><path d="M-0.666667 469.715 1280.67 469.715" stroke="#FFFFFF" stroke-width="1.33333" stroke-linejoin="round" stroke-miterlimit="10" fill="none" fill-rule="evenodd"/><path d="M-0.666667 548 1280.67 548" stroke="#FFFFFF" stroke-width="1.33333" stroke-linejoin="round" stroke-miterlimit="10" fill="none" fill-rule="evenodd"/><path d="M0-0.666667 0 626.953" stroke="#FFFFFF" stroke-width="1.33333" stroke-linejoin="round" stroke-miterlimit="10" fill="none" fill-rule="evenodd"/><path d="M1280-0.666667 1280 626.953" stroke="#FFFFFF" stroke-width="1.33333" stroke-linejoin="round" stroke-miterlimit="10" fill="none" fill-rule="evenodd"/><path d="M-0.666667 0 1280.67 0" stroke="#FFFFFF" stroke-width="1.33333" stroke-linejoin="round" stroke-miterlimit="10" fill="none" fill-rule="evenodd"/><path d="M-0.666667 626.286 1280.67 626.286" stroke="#FFFFFF" stroke-width="1.33333" stroke-linejoin="round" stroke-miterlimit="10" fill="none" fill-rule="evenodd"/></g></svg>